<?xml version="1.0" encoding="UTF-8"?>
<svg id="Capa_1" data-name="Capa 1" xmlns="http://www.w3.org/2000/svg" viewBox="0 0 517.71 247.59">
  <defs>
    <style>
      .cls-1, .cls-2, .cls-3 {
        fill: #312783;
      }

      .cls-4, .cls-5, .cls-6 {
        fill: #009640;
      }

      .cls-7 {
        letter-spacing: -.02em;
      }

      .cls-8, .cls-9, .cls-2, .cls-10, .cls-3, .cls-11, .cls-12, .cls-5, .cls-6, .cls-13, .cls-14, .cls-15 {
        stroke-miterlimit: 10;
      }

      .cls-8, .cls-9, .cls-12 {
        stroke: #009fe3;
      }

      .cls-8, .cls-16, .cls-12 {
        fill: #009fe3;
      }

      .cls-8, .cls-3, .cls-6 {
        font-family: Verdana, Verdana;
        font-size: 21px;
      }

      .cls-17 {
        font-family: Verdana-Bold, Verdana;
        font-size: 36px;
        font-weight: 700;
      }

      .cls-9, .cls-11, .cls-15 {
        fill: none;
      }

      .cls-2, .cls-3, .cls-11 {
        stroke: #312783;
      }

      .cls-10 {
        fill: #cbbba0;
      }

      .cls-10, .cls-5, .cls-6, .cls-15 {
        stroke: #009640;
      }

      .cls-13 {
        fill: #e30613;
        stroke: #e30613;
      }

      .cls-18 {
        letter-spacing: -.05em;
      }

      .cls-14 {
        fill: #fff;
        stroke: #f39200;
      }

      .cls-19 {
        fill: #1d1d1b;
      }
    </style>
  </defs>
  <rect class="cls-14" x=".5" y=".5" width="516.71" height="246.59" rx="6.28" ry="6.28"/>
  <g>
    <rect class="cls-10" x="71.41" y="91.8" width="402.05" height="66.45"/>
    <text class="cls-17" transform="translate(76.89 135.59)"><tspan class="cls-12" x="0" y="0">p</tspan><tspan class="cls-13" x="25.17" y="0">{</tspan><tspan class="cls-2" x="50.77" y="0">color</tspan><tspan class="cls-19" x="151.58" y="0">:</tspan><tspan class="cls-5" x="166.06" y="0">#15AF16</tspan><tspan class="cls-19" x="351.02" y="0">;</tspan><tspan class="cls-13" x="365.5" y="0">}</tspan></text>
    <g>
      <line class="cls-4" x1="79.54" y1="188.86" x2="79.54" y2="148.39"/>
      <g>
        <line class="cls-9" x1="79.54" y1="182.83" x2="79.54" y2="148.39"/>
        <path class="cls-16" d="m79.54,188.86c1.05-2.84,2.85-6.36,4.76-8.55l-4.76,1.72-4.75-1.72c1.9,2.18,3.7,5.71,4.75,8.55Z"/>
      </g>
    </g>
    <g>
      <line class="cls-1" x1="184.35" y1="188.86" x2="184.35" y2="148.39"/>
      <g>
        <line class="cls-11" x1="184.35" y1="182.83" x2="184.35" y2="148.39"/>
        <path class="cls-1" d="m184.35,188.86c1.05-2.84,2.85-6.36,4.76-8.55l-4.76,1.72-4.75-1.72c1.9,2.18,3.7,5.71,4.75,8.55Z"/>
      </g>
    </g>
    <g>
      <line class="cls-4" x1="341.53" y1="183.29" x2="341.53" y2="142.82"/>
      <g>
        <line class="cls-15" x1="341.53" y1="177.26" x2="341.53" y2="142.82"/>
        <path class="cls-4" d="m341.53,183.29c1.05-2.84,2.85-6.36,4.76-8.55l-4.76,1.72-4.75-1.72c1.9,2.18,3.7,5.71,4.75,8.55Z"/>
      </g>
    </g>
    <g>
      <line class="cls-16" x1="281.77" y1="97.65" x2="281.77" y2="57.18"/>
      <g>
        <line class="cls-9" x1="281.77" y1="91.61" x2="281.77" y2="57.18"/>
        <path class="cls-16" d="m281.77,97.65c1.05-2.84,2.85-6.36,4.76-8.55l-4.76,1.72-4.75-1.72c1.9,2.18,3.7,5.71,4.75,8.55Z"/>
      </g>
    </g>
    <text class="cls-8" transform="translate(44.24 206.38)"><tspan x="0" y="0">Selector</tspan></text>
    <text class="cls-3" transform="translate(155.29 206.38)"><tspan x="0" y="0">Propiedad</tspan></text>
    <text class="cls-8" transform="translate(226.01 52.66)"><tspan x="0" y="0">Decla</tspan><tspan class="cls-7" x="58.01" y="0">r</tspan><tspan x="66.6" y="0">ación</tspan></text>
    <text class="cls-6" transform="translate(321.68 206.7)"><tspan class="cls-18" x="0" y="0">V</tspan><tspan x="13.33" y="0">alor</tspan></text>
  </g>
</svg>