<?xml version="1.0" encoding="UTF-8"?>
<svg id="Capa_1" data-name="Capa 1" xmlns="http://www.w3.org/2000/svg" viewBox="0 0 527.22 342.8">
  <defs>
    <style>
      .cls-1, .cls-2 {
        fill: #312783;
      }

      .cls-3 {
        letter-spacing: -.05em;
      }

      .cls-4 {
        fill: #fff;
      }

      .cls-5 {
        letter-spacing: 0em;
      }

      .cls-6 {
        letter-spacing: 0em;
      }

      .cls-7 {
        font-size: 39px;
      }

      .cls-7, .cls-2, .cls-8, .cls-9 {
        font-family: MyriadPro-Regular, 'Myriad Pro';
      }

      .cls-7, .cls-9 {
        fill: #e30613;
      }

      .cls-10, .cls-11, .cls-12, .cls-13, .cls-14, .cls-15, .cls-16 {
        fill: none;
        stroke-linecap: square;
      }

      .cls-10, .cls-11, .cls-12, .cls-13, .cls-14, .cls-16 {
        stroke-miterlimit: 10;
        stroke-width: 3px;
      }

      .cls-10, .cls-11, .cls-16 {
        stroke: #ca9e67;
      }

      .cls-10, .cls-14 {
        stroke-dasharray: 0 0 .02 4.98;
      }

      .cls-17 {
        fill: #f39200;
      }

      .cls-12, .cls-13, .cls-14, .cls-15 {
        stroke: #1d1d1b;
      }

      .cls-12, .cls-16 {
        stroke-dasharray: 0 0 .02 4.97;
      }

      .cls-18 {
        letter-spacing: -.01em;
      }

      .cls-19 {
        letter-spacing: 0em;
      }

      .cls-20 {
        letter-spacing: 0em;
      }

      .cls-2 {
        font-size: 44px;
      }

      .cls-21 {
        letter-spacing: 0em;
      }

      .cls-22 {
        letter-spacing: 0em;
      }

      .cls-23 {
        letter-spacing: 0em;
      }

      .cls-24 {
        letter-spacing: 0em;
      }

      .cls-15 {
        stroke-linejoin: round;
        stroke-width: 7px;
      }

      .cls-25 {
        letter-spacing: -.04em;
      }

      .cls-8 {
        fill: #36a9e1;
        font-size: 28px;
      }

      .cls-26 {
        fill: #ca9e67;
      }

      .cls-27 {
        fill: #fcea10;
      }

      .cls-9 {
        font-size: 22.5px;
      }

      .cls-28 {
        letter-spacing: 0em;
      }

      .cls-29 {
        letter-spacing: 0em;
      }

      .cls-30 {
        fill: #1d1d1b;
      }
    </style>
  </defs>
  <g>
    <rect class="cls-27" x="1.5" y="1.5" width="104.84" height="84.95"/>
    <g>
      <polyline class="cls-13" points="1.5 1.51 1.5 1.5 1.51 1.5"/>
      <line class="cls-12" x1="6.48" y1="1.5" x2="103.85" y2="1.5"/>
      <polyline class="cls-13" points="106.33 1.5 106.34 1.5 106.34 1.51"/>
      <line class="cls-14" x1="106.34" y1="6.49" x2="106.34" y2="83.95"/>
      <polyline class="cls-13" points="106.34 86.44 106.34 86.45 106.33 86.45"/>
      <line class="cls-12" x1="101.36" y1="86.45" x2="4" y2="86.45"/>
      <polyline class="cls-13" points="1.51 86.45 1.5 86.45 1.5 86.44"/>
      <line class="cls-14" x1="1.5" y1="81.46" x2="1.5" y2="4"/>
    </g>
  </g>
  <g>
    <rect class="cls-1" x="106.34" y="1.5" width="104.84" height="84.95"/>
    <g>
      <polyline class="cls-13" points="106.34 1.51 106.34 1.5 106.35 1.5"/>
      <line class="cls-12" x1="111.33" y1="1.5" x2="208.69" y2="1.5"/>
      <polyline class="cls-13" points="211.18 1.5 211.19 1.5 211.19 1.51"/>
      <line class="cls-14" x1="211.19" y1="6.49" x2="211.19" y2="83.95"/>
      <polyline class="cls-13" points="211.19 86.44 211.19 86.45 211.18 86.45"/>
      <line class="cls-12" x1="206.21" y1="86.45" x2="108.84" y2="86.45"/>
      <polyline class="cls-13" points="106.35 86.45 106.34 86.45 106.34 86.44"/>
      <line class="cls-14" x1="106.34" y1="81.46" x2="106.34" y2="4"/>
    </g>
  </g>
  <g>
    <rect class="cls-1" x="211.19" y="1.5" width="104.84" height="84.95"/>
    <g>
      <polyline class="cls-13" points="211.19 1.51 211.19 1.5 211.2 1.5"/>
      <line class="cls-12" x1="216.17" y1="1.5" x2="313.54" y2="1.5"/>
      <polyline class="cls-13" points="316.02 1.5 316.03 1.5 316.03 1.51"/>
      <line class="cls-14" x1="316.03" y1="6.49" x2="316.03" y2="83.95"/>
      <polyline class="cls-13" points="316.03 86.44 316.03 86.45 316.02 86.45"/>
      <line class="cls-12" x1="311.05" y1="86.45" x2="213.69" y2="86.45"/>
      <polyline class="cls-13" points="211.2 86.45 211.19 86.45 211.19 86.44"/>
      <line class="cls-14" x1="211.19" y1="81.46" x2="211.19" y2="4"/>
    </g>
  </g>
  <g>
    <rect class="cls-1" x="316.03" y="1.5" width="104.84" height="84.95"/>
    <g>
      <polyline class="cls-13" points="316.03 1.51 316.03 1.5 316.04 1.5"/>
      <line class="cls-12" x1="321.02" y1="1.5" x2="418.38" y2="1.5"/>
      <polyline class="cls-13" points="420.87 1.5 420.88 1.5 420.88 1.51"/>
      <line class="cls-14" x1="420.88" y1="6.49" x2="420.88" y2="83.95"/>
      <polyline class="cls-13" points="420.88 86.44 420.88 86.45 420.87 86.45"/>
      <line class="cls-12" x1="415.9" y1="86.45" x2="318.53" y2="86.45"/>
      <polyline class="cls-13" points="316.04 86.45 316.03 86.45 316.03 86.44"/>
      <line class="cls-14" x1="316.03" y1="81.46" x2="316.03" y2="4"/>
    </g>
  </g>
  <g>
    <rect class="cls-1" x="420.88" y="1.5" width="104.84" height="84.95"/>
    <g>
      <polyline class="cls-13" points="420.88 1.51 420.88 1.5 420.89 1.5"/>
      <line class="cls-12" x1="425.86" y1="1.5" x2="523.23" y2="1.5"/>
      <polyline class="cls-13" points="525.71 1.5 525.72 1.5 525.72 1.51"/>
      <line class="cls-14" x1="525.72" y1="6.49" x2="525.72" y2="83.95"/>
      <polyline class="cls-13" points="525.72 86.44 525.72 86.45 525.71 86.45"/>
      <line class="cls-12" x1="520.74" y1="86.45" x2="423.38" y2="86.45"/>
      <polyline class="cls-13" points="420.89 86.45 420.88 86.45 420.88 86.44"/>
      <line class="cls-14" x1="420.88" y1="81.46" x2="420.88" y2="4"/>
    </g>
  </g>
  <g>
    <rect class="cls-27" x="1.5" y="86.45" width="104.84" height="84.95"/>
    <g>
      <polyline class="cls-13" points="1.5 86.46 1.5 86.45 1.51 86.45"/>
      <line class="cls-12" x1="6.48" y1="86.45" x2="103.85" y2="86.45"/>
      <polyline class="cls-13" points="106.33 86.45 106.34 86.45 106.34 86.46"/>
      <line class="cls-14" x1="106.34" y1="91.44" x2="106.34" y2="168.9"/>
      <polyline class="cls-13" points="106.34 171.39 106.34 171.4 106.33 171.4"/>
      <line class="cls-12" x1="101.36" y1="171.4" x2="4" y2="171.4"/>
      <polyline class="cls-13" points="1.51 171.4 1.5 171.4 1.5 171.39"/>
      <line class="cls-14" x1="1.5" y1="166.41" x2="1.5" y2="88.95"/>
    </g>
  </g>
  <g>
    <rect class="cls-4" x="106.34" y="86.45" width="104.84" height="84.95"/>
    <g>
      <polyline class="cls-13" points="106.34 86.46 106.34 86.45 106.35 86.45"/>
      <line class="cls-12" x1="111.33" y1="86.45" x2="208.69" y2="86.45"/>
      <polyline class="cls-13" points="211.18 86.45 211.19 86.45 211.19 86.46"/>
      <line class="cls-14" x1="211.19" y1="91.44" x2="211.19" y2="168.9"/>
      <polyline class="cls-13" points="211.19 171.39 211.19 171.4 211.18 171.4"/>
      <line class="cls-12" x1="206.21" y1="171.4" x2="108.84" y2="171.4"/>
      <polyline class="cls-13" points="106.35 171.4 106.34 171.4 106.34 171.39"/>
      <line class="cls-14" x1="106.34" y1="166.41" x2="106.34" y2="88.95"/>
    </g>
  </g>
  <g>
    <rect class="cls-4" x="211.19" y="86.45" width="104.84" height="84.95"/>
    <g>
      <polyline class="cls-13" points="211.19 86.46 211.19 86.45 211.2 86.45"/>
      <line class="cls-12" x1="216.17" y1="86.45" x2="313.54" y2="86.45"/>
      <polyline class="cls-13" points="316.02 86.45 316.03 86.45 316.03 86.46"/>
      <line class="cls-14" x1="316.03" y1="91.44" x2="316.03" y2="168.9"/>
      <polyline class="cls-13" points="316.03 171.39 316.03 171.4 316.02 171.4"/>
      <line class="cls-12" x1="311.05" y1="171.4" x2="213.69" y2="171.4"/>
      <polyline class="cls-13" points="211.2 171.4 211.19 171.4 211.19 171.39"/>
      <line class="cls-14" x1="211.19" y1="166.41" x2="211.19" y2="88.95"/>
    </g>
  </g>
  <g>
    <rect class="cls-17" x="316.03" y="86.45" width="104.84" height="84.95"/>
    <g>
      <polyline class="cls-13" points="316.03 86.46 316.03 86.45 316.04 86.45"/>
      <line class="cls-12" x1="321.02" y1="86.45" x2="418.38" y2="86.45"/>
      <polyline class="cls-13" points="420.87 86.45 420.88 86.45 420.88 86.46"/>
      <line class="cls-14" x1="420.88" y1="91.44" x2="420.88" y2="168.9"/>
      <polyline class="cls-13" points="420.88 171.39 420.88 171.4 420.87 171.4"/>
      <line class="cls-12" x1="415.9" y1="171.4" x2="318.53" y2="171.4"/>
      <polyline class="cls-13" points="316.04 171.4 316.03 171.4 316.03 171.39"/>
      <line class="cls-14" x1="316.03" y1="166.41" x2="316.03" y2="88.95"/>
    </g>
  </g>
  <g>
    <rect class="cls-4" x="420.88" y="86.45" width="104.84" height="84.95"/>
    <g>
      <polyline class="cls-13" points="420.88 86.46 420.88 86.45 420.89 86.45"/>
      <line class="cls-12" x1="425.86" y1="86.45" x2="523.23" y2="86.45"/>
      <polyline class="cls-13" points="525.71 86.45 525.72 86.45 525.72 86.46"/>
      <line class="cls-14" x1="525.72" y1="91.44" x2="525.72" y2="168.9"/>
      <polyline class="cls-13" points="525.72 171.39 525.72 171.4 525.71 171.4"/>
      <line class="cls-12" x1="520.74" y1="171.4" x2="423.38" y2="171.4"/>
      <polyline class="cls-13" points="420.89 171.4 420.88 171.4 420.88 171.39"/>
      <line class="cls-14" x1="420.88" y1="166.41" x2="420.88" y2="88.95"/>
    </g>
  </g>
  <g>
    <rect class="cls-27" x="1.5" y="171.4" width="104.84" height="84.95"/>
    <g>
      <polyline class="cls-13" points="1.5 171.41 1.5 171.4 1.51 171.4"/>
      <line class="cls-12" x1="6.48" y1="171.4" x2="103.85" y2="171.4"/>
      <polyline class="cls-13" points="106.33 171.4 106.34 171.4 106.34 171.41"/>
      <line class="cls-14" x1="106.34" y1="176.38" x2="106.34" y2="253.85"/>
      <polyline class="cls-13" points="106.34 256.34 106.34 256.35 106.33 256.35"/>
      <line class="cls-12" x1="101.36" y1="256.35" x2="4" y2="256.35"/>
      <polyline class="cls-13" points="1.51 256.35 1.5 256.35 1.5 256.34"/>
      <line class="cls-14" x1="1.5" y1="251.36" x2="1.5" y2="173.9"/>
    </g>
  </g>
  <g>
    <rect class="cls-26" x="106.34" y="171.4" width="104.84" height="84.95"/>
    <g>
      <polyline class="cls-11" points="106.34 171.41 106.34 171.4 106.35 171.4"/>
      <line class="cls-16" x1="111.33" y1="171.4" x2="208.69" y2="171.4"/>
      <polyline class="cls-11" points="211.18 171.4 211.19 171.4 211.19 171.41"/>
      <line class="cls-10" x1="211.19" y1="176.38" x2="211.19" y2="253.85"/>
      <polyline class="cls-11" points="211.19 256.34 211.19 256.35 211.18 256.35"/>
      <line class="cls-16" x1="206.21" y1="256.35" x2="108.84" y2="256.35"/>
      <polyline class="cls-11" points="106.35 256.35 106.34 256.35 106.34 256.34"/>
      <line class="cls-10" x1="106.34" y1="251.36" x2="106.34" y2="173.9"/>
    </g>
  </g>
  <g>
    <rect class="cls-26" x="211.19" y="171.4" width="104.84" height="84.95"/>
    <g>
      <polyline class="cls-11" points="211.19 171.41 211.19 171.4 211.2 171.4"/>
      <line class="cls-16" x1="216.17" y1="171.4" x2="313.54" y2="171.4"/>
      <polyline class="cls-11" points="316.02 171.4 316.03 171.4 316.03 171.41"/>
      <line class="cls-10" x1="316.03" y1="176.38" x2="316.03" y2="253.85"/>
      <polyline class="cls-11" points="316.03 256.34 316.03 256.35 316.02 256.35"/>
      <line class="cls-16" x1="311.05" y1="256.35" x2="213.69" y2="256.35"/>
      <polyline class="cls-11" points="211.2 256.35 211.19 256.35 211.19 256.34"/>
      <line class="cls-10" x1="211.19" y1="251.36" x2="211.19" y2="173.9"/>
    </g>
  </g>
  <g>
    <rect class="cls-4" x="316.03" y="171.4" width="104.84" height="84.95"/>
    <g>
      <polyline class="cls-13" points="316.03 171.41 316.03 171.4 316.04 171.4"/>
      <line class="cls-12" x1="321.02" y1="171.4" x2="418.38" y2="171.4"/>
      <polyline class="cls-13" points="420.87 171.4 420.88 171.4 420.88 171.41"/>
      <line class="cls-14" x1="420.88" y1="176.38" x2="420.88" y2="253.85"/>
      <polyline class="cls-13" points="420.88 256.34 420.88 256.35 420.87 256.35"/>
      <line class="cls-12" x1="415.9" y1="256.35" x2="318.53" y2="256.35"/>
      <polyline class="cls-13" points="316.04 256.35 316.03 256.35 316.03 256.34"/>
      <line class="cls-14" x1="316.03" y1="251.36" x2="316.03" y2="173.9"/>
    </g>
  </g>
  <g>
    <rect class="cls-4" x="420.88" y="171.4" width="104.84" height="84.95"/>
    <g>
      <polyline class="cls-13" points="420.88 171.41 420.88 171.4 420.89 171.4"/>
      <line class="cls-12" x1="425.86" y1="171.4" x2="523.23" y2="171.4"/>
      <polyline class="cls-13" points="525.71 171.4 525.72 171.4 525.72 171.41"/>
      <line class="cls-14" x1="525.72" y1="176.38" x2="525.72" y2="253.85"/>
      <polyline class="cls-13" points="525.72 256.34 525.72 256.35 525.71 256.35"/>
      <line class="cls-12" x1="520.74" y1="256.35" x2="423.38" y2="256.35"/>
      <polyline class="cls-13" points="420.89 256.35 420.88 256.35 420.88 256.34"/>
      <line class="cls-14" x1="420.88" y1="251.36" x2="420.88" y2="173.9"/>
    </g>
  </g>
  <g>
    <rect class="cls-27" x="1.5" y="256.35" width="104.84" height="84.95"/>
    <g>
      <polyline class="cls-13" points="1.5 256.36 1.5 256.35 1.51 256.35"/>
      <line class="cls-12" x1="6.48" y1="256.35" x2="103.85" y2="256.35"/>
      <polyline class="cls-13" points="106.33 256.35 106.34 256.35 106.34 256.36"/>
      <line class="cls-14" x1="106.34" y1="261.33" x2="106.34" y2="338.8"/>
      <polyline class="cls-13" points="106.34 341.29 106.34 341.3 106.33 341.3"/>
      <line class="cls-12" x1="101.36" y1="341.3" x2="4" y2="341.3"/>
      <polyline class="cls-13" points="1.51 341.3 1.5 341.3 1.5 341.29"/>
      <line class="cls-14" x1="1.5" y1="336.31" x2="1.5" y2="258.84"/>
    </g>
  </g>
  <g>
    <rect class="cls-26" x="106.34" y="256.35" width="104.84" height="84.95"/>
    <g>
      <polyline class="cls-11" points="106.34 256.36 106.34 256.35 106.35 256.35"/>
      <line class="cls-16" x1="111.33" y1="256.35" x2="208.69" y2="256.35"/>
      <polyline class="cls-11" points="211.18 256.35 211.19 256.35 211.19 256.36"/>
      <line class="cls-10" x1="211.19" y1="261.33" x2="211.19" y2="338.8"/>
      <polyline class="cls-11" points="211.19 341.29 211.19 341.3 211.18 341.3"/>
      <line class="cls-16" x1="206.21" y1="341.3" x2="108.84" y2="341.3"/>
      <polyline class="cls-11" points="106.35 341.3 106.34 341.3 106.34 341.29"/>
      <line class="cls-10" x1="106.34" y1="336.31" x2="106.34" y2="258.84"/>
    </g>
  </g>
  <g>
    <rect class="cls-26" x="211.19" y="256.35" width="104.84" height="84.95"/>
    <g>
      <polyline class="cls-11" points="211.19 256.36 211.19 256.35 211.2 256.35"/>
      <line class="cls-16" x1="216.17" y1="256.35" x2="313.54" y2="256.35"/>
      <polyline class="cls-11" points="316.02 256.35 316.03 256.35 316.03 256.36"/>
      <line class="cls-10" x1="316.03" y1="261.33" x2="316.03" y2="338.8"/>
      <polyline class="cls-11" points="316.03 341.29 316.03 341.3 316.02 341.3"/>
      <line class="cls-16" x1="311.05" y1="341.3" x2="213.69" y2="341.3"/>
      <polyline class="cls-11" points="211.2 341.3 211.19 341.3 211.19 341.29"/>
      <line class="cls-10" x1="211.19" y1="336.31" x2="211.19" y2="258.84"/>
    </g>
  </g>
  <g>
    <rect class="cls-4" x="316.03" y="256.35" width="104.84" height="84.95"/>
    <g>
      <polyline class="cls-13" points="316.03 256.36 316.03 256.35 316.04 256.35"/>
      <line class="cls-12" x1="321.02" y1="256.35" x2="418.38" y2="256.35"/>
      <polyline class="cls-13" points="420.87 256.35 420.88 256.35 420.88 256.36"/>
      <line class="cls-14" x1="420.88" y1="261.33" x2="420.88" y2="338.8"/>
      <polyline class="cls-13" points="420.88 341.29 420.88 341.3 420.87 341.3"/>
      <line class="cls-12" x1="415.9" y1="341.3" x2="318.53" y2="341.3"/>
      <polyline class="cls-13" points="316.04 341.3 316.03 341.3 316.03 341.29"/>
      <line class="cls-14" x1="316.03" y1="336.31" x2="316.03" y2="258.84"/>
    </g>
  </g>
  <g>
    <rect class="cls-4" x="420.88" y="256.35" width="104.84" height="84.95"/>
    <g>
      <polyline class="cls-13" points="420.88 256.36 420.88 256.35 420.89 256.35"/>
      <line class="cls-12" x1="425.86" y1="256.35" x2="523.23" y2="256.35"/>
      <polyline class="cls-13" points="525.71 256.35 525.72 256.35 525.72 256.36"/>
      <line class="cls-14" x1="525.72" y1="261.33" x2="525.72" y2="338.8"/>
      <polyline class="cls-13" points="525.72 341.29 525.72 341.3 525.71 341.3"/>
      <line class="cls-12" x1="520.74" y1="341.3" x2="423.38" y2="341.3"/>
      <polyline class="cls-13" points="420.89 341.3 420.88 341.3 420.88 341.29"/>
      <line class="cls-14" x1="420.88" y1="336.31" x2="420.88" y2="258.84"/>
    </g>
  </g>
  <g>
    <line class="cls-15" x1="53.92" y1="308.81" x2="53.92" y2="118.93"/>
    <polygon class="cls-30" points="64.39 305.75 53.92 323.88 43.45 305.75 64.39 305.75"/>
    <polygon class="cls-30" points="64.39 121.99 53.92 103.86 43.45 121.99 64.39 121.99"/>
  </g>
  <text class="cls-7" transform="translate(65.22 293.99) rotate(-90)"><tspan x="0" y="0">G</tspan><tspan class="cls-21" x="25.19" y="0">r</tspan><tspan x="38.1" y="0">id</tspan><tspan class="cls-25" x="69.22" y="0"> </tspan><tspan class="cls-3" x="75.89" y="0">T</tspan><tspan class="cls-6" x="93.52" y="0">r</tspan><tspan class="cls-24" x="106.08" y="0">ack</tspan></text>
  <g>
    <line class="cls-15" x1="121.96" y1="43.97" x2="494.29" y2="43.97"/>
    <polygon class="cls-30" points="125.03 54.45 106.89 43.98 125.03 33.5 125.03 54.45"/>
    <polygon class="cls-30" points="491.23 54.45 509.36 43.98 491.23 33.5 491.23 54.45"/>
  </g>
  <text class="cls-7" transform="translate(182.3 57.06)"><tspan x="0" y="0">G</tspan><tspan class="cls-21" x="25.19" y="0">r</tspan><tspan x="38.1" y="0">id</tspan><tspan class="cls-25" x="69.22" y="0"> </tspan><tspan class="cls-3" x="75.89" y="0">T</tspan><tspan class="cls-6" x="93.52" y="0">r</tspan><tspan class="cls-24" x="106.08" y="0">ack</tspan></text>
  <text class="cls-8" transform="translate(319.89 144.86)"><tspan x="0" y="0">G</tspan><tspan class="cls-23" x="18.09" y="0">r</tspan><tspan x="27.36" y="0">id </tspan><tspan class="cls-18" x="55.64" y="0">C</tspan><tspan x="71.57" y="0">ell</tspan></text>
  <text class="cls-2" transform="translate(121.96 267.51)"><tspan x="0" y="0">G</tspan><tspan class="cls-28" x="28.42" y="0">r</tspan><tspan class="cls-22" x="42.99" y="0">id </tspan><tspan class="cls-20" x="87.43" y="0">A</tspan><tspan class="cls-19" x="114.22" y="0">r</tspan><tspan class="cls-29" x="128.17" y="0">ea</tspan></text>
  <g>
    <rect class="cls-30" x="428.22" y="243.03" width="90.16" height="26.64"/>
    <text class="cls-9" transform="translate(432.94 263.28)"><tspan x="0" y="0">G</tspan><tspan class="cls-5" x="14.53" y="0">r</tspan><tspan x="21.98" y="0">id Line</tspan></text>
  </g>
</svg>