<?xml version="1.0" encoding="UTF-8"?>
<svg id="Capa_1" data-name="Capa 1" xmlns="http://www.w3.org/2000/svg" viewBox="0 0 113.63 332.65">
  <defs>
    <style>
      .cls-1 {
        stroke-dasharray: 0 0 .02 4.92;
      }

      .cls-1, .cls-2, .cls-3, .cls-4, .cls-5, .cls-6 {
        fill: none;
        stroke: #1d1d1b;
        stroke-miterlimit: 10;
      }

      .cls-1, .cls-2, .cls-3, .cls-4, .cls-6 {
        stroke-linecap: square;
        stroke-width: 3px;
      }

      .cls-7 {
        fill: #2fac66;
      }

      .cls-2 {
        stroke-dasharray: 0 0 .02 5.02;
      }

      .cls-8 {
        letter-spacing: -.01em;
      }

      .cls-9 {
        fill: #f39200;
      }

      .cls-3 {
        stroke-dasharray: 0 0 .02 5.01;
      }

      .cls-10 {
        fill: #e30613;
        font-family: MyriadPro-Regular, 'Myriad Pro';
        font-size: 26.76px;
      }

      .cls-6 {
        stroke-dasharray: 0 0 .02 4.98;
      }

      .cls-11 {
        letter-spacing: 0em;
      }

      .cls-12 {
        fill: #c6c6c6;
      }

      .cls-13 {
        fill: #1d1d1b;
      }
    </style>
  </defs>
  <g>
    <rect class="cls-9" x="1.5" y="1.5" width="110.63" height="84.95"/>
    <g>
      <polyline class="cls-4" points="1.5 1.51 1.5 1.5 1.51 1.5"/>
      <line class="cls-3" x1="6.52" y1="1.5" x2="109.62" y2="1.5"/>
      <polyline class="cls-4" points="112.12 1.5 112.13 1.5 112.13 1.51"/>
      <line class="cls-6" x1="112.13" y1="6.49" x2="112.13" y2="83.95"/>
      <polyline class="cls-4" points="112.13 86.44 112.13 86.45 112.12 86.45"/>
      <line class="cls-3" x1="107.11" y1="86.45" x2="4.01" y2="86.45"/>
      <polyline class="cls-4" points="1.51 86.45 1.5 86.45 1.5 86.44"/>
      <line class="cls-6" x1="1.5" y1="81.46" x2="1.5" y2="4"/>
    </g>
  </g>
  <g>
    <rect class="cls-7" x="1.5" y="86.45" width="110.63" height="136.11"/>
    <g>
      <polyline class="cls-4" points="1.5 86.46 1.5 86.45 1.51 86.45"/>
      <line class="cls-3" x1="6.52" y1="86.45" x2="109.62" y2="86.45"/>
      <polyline class="cls-4" points="112.12 86.45 112.13 86.45 112.13 86.46"/>
      <line class="cls-2" x1="112.13" y1="91.48" x2="112.13" y2="220.04"/>
      <polyline class="cls-4" points="112.13 222.55 112.13 222.56 112.12 222.56"/>
      <line class="cls-3" x1="107.11" y1="222.56" x2="4.01" y2="222.56"/>
      <polyline class="cls-4" points="1.51 222.56 1.5 222.56 1.5 222.55"/>
      <line class="cls-2" x1="1.5" y1="217.53" x2="1.5" y2="88.97"/>
    </g>
  </g>
  <g>
    <rect class="cls-12" x="1.5" y="222.56" width="110.63" height="108.58"/>
    <g>
      <polyline class="cls-4" points="1.5 222.57 1.5 222.56 1.51 222.56"/>
      <line class="cls-3" x1="6.52" y1="222.56" x2="109.62" y2="222.56"/>
      <polyline class="cls-4" points="112.12 222.56 112.13 222.56 112.13 222.57"/>
      <line class="cls-1" x1="112.13" y1="227.49" x2="112.13" y2="328.68"/>
      <polyline class="cls-4" points="112.13 331.14 112.13 331.15 112.12 331.15"/>
      <line class="cls-3" x1="107.11" y1="331.15" x2="4.01" y2="331.15"/>
      <polyline class="cls-4" points="1.51 331.15 1.5 331.15 1.5 331.14"/>
      <line class="cls-1" x1="1.5" y1="326.22" x2="1.5" y2="225.03"/>
    </g>
  </g>
  <text class="cls-10" transform="translate(20.77 53.97) scale(1.03 1)"><tspan x="0" y="0">100 </tspan><tspan class="cls-8" x="46.85" y="0">p</tspan><tspan class="cls-11" x="61.7" y="0">x</tspan></text>
  <text class="cls-10" transform="translate(19.15 181.48) scale(1.03 1)"><tspan x="0" y="0">200 </tspan><tspan class="cls-8" x="46.85" y="0">p</tspan><tspan class="cls-11" x="61.7" y="0">x</tspan></text>
  <text class="cls-10" transform="translate(19.27 276.85) scale(1.03 1)"><tspan x="0" y="0">150 </tspan><tspan class="cls-8" x="46.85" y="0">p</tspan><tspan class="cls-11" x="61.7" y="0">x</tspan></text>
  <g>
    <line class="cls-5" x1="16.2" y1="8.58" x2="16.2" y2="81.46"/>
    <path class="cls-13" d="m16.2,2.55c-1.05,2.84-2.85,6.36-4.76,8.55l4.76-1.72,4.75,1.72c-1.9-2.18-3.7-5.71-4.75-8.55Z"/>
    <path class="cls-13" d="m16.2,87.49c-1.05-2.84-2.85-6.36-4.76-8.55l4.76,1.72,4.75-1.72c-1.9,2.18-3.7,5.71-4.75,8.55Z"/>
  </g>
  <g>
    <line class="cls-5" x1="16.2" y1="228.6" x2="16.2" y2="324.17"/>
    <path class="cls-13" d="m16.2,222.56c-1.05,2.84-2.85,6.36-4.76,8.55l4.76-1.72,4.75,1.72c-1.9-2.18-3.7-5.71-4.75-8.55Z"/>
    <path class="cls-13" d="m16.2,330.21c-1.05-2.84-2.85-6.36-4.76-8.55l4.76,1.72,4.75-1.72c-1.9,2.18-3.7,5.71-4.75,8.55Z"/>
  </g>
  <g>
    <line class="cls-5" x1="16.2" y1="93.53" x2="16.2" y2="214.41"/>
    <path class="cls-13" d="m16.2,87.49c-1.05,2.84-2.85,6.36-4.76,8.55l4.76-1.72,4.75,1.72c-1.9-2.18-3.7-5.71-4.75-8.55Z"/>
    <path class="cls-13" d="m16.2,220.44c-1.05-2.84-2.85-6.36-4.76-8.55l4.76,1.72,4.75-1.72c-1.9,2.18-3.7,5.71-4.75,8.55Z"/>
  </g>
</svg>