<?xml version="1.0" encoding="UTF-8"?>
<svg id="Capa_1" data-name="Capa 1" xmlns="http://www.w3.org/2000/svg" viewBox="0 0 1132.08 1014.12">
  <defs>
    <style>
      .cls-1, .cls-2, .cls-3, .cls-4, .cls-5, .cls-6, .cls-7 {
        fill: lime;
      }

      .cls-1, .cls-8 {
        letter-spacing: 0em;
      }

      .cls-9 {
        fill: #fff;
      }

      .cls-10 {
        letter-spacing: 0em;
      }

      .cls-10, .cls-11, .cls-12, .cls-13, .cls-14, .cls-15, .cls-16, .cls-17, .cls-18, .cls-19, .cls-20, .cls-21, .cls-8, .cls-22, .cls-23, .cls-24, .cls-25 {
        fill: #f15a24;
      }

      .cls-2, .cls-14 {
        letter-spacing: 0em;
      }

      .cls-11 {
        letter-spacing: .02em;
      }

      .cls-12 {
        letter-spacing: 0em;
      }

      .cls-15, .cls-5, .cls-26 {
        letter-spacing: 0em;
      }

      .cls-16 {
        letter-spacing: 0em;
      }

      .cls-27 {
        fill: #c69c6d;
      }

      .cls-17 {
        letter-spacing: 0em;
      }

      .cls-28, .cls-4, .cls-22 {
        letter-spacing: 0em;
      }

      .cls-29 {
        font-size: 24px;
      }

      .cls-29, .cls-30 {
        font-family: MyriadPro-Regular, 'Myriad Pro';
      }

      .cls-18 {
        letter-spacing: .03em;
      }

      .cls-19 {
        letter-spacing: .02em;
      }

      .cls-30 {
        font-size: 48px;
      }

      .cls-20 {
        letter-spacing: 0em;
      }

      .cls-21 {
        letter-spacing: 0em;
      }

      .cls-31 {
        letter-spacing: 0em;
      }

      .cls-6, .cls-32 {
        letter-spacing: 0em;
      }

      .cls-23 {
        letter-spacing: .02em;
      }

      .cls-24 {
        letter-spacing: 0em;
      }

      .cls-7, .cls-25 {
        letter-spacing: .02em;
      }
    </style>
  </defs>
  <g>
    <g>
      <rect class="cls-9" x=".5" y="723.62" width="1130.08" height="93"/>
      <path d="m1130.08,724.12v92H1v-92h1129.08m1-1H0v94h1131.08v-94h0Z"/>
    </g>
    <g>
      <g>
        <rect class="cls-27" x="89.5" y="731.57" width="187" height="77.36"/>
        <path d="m276,732.07v76.36H90v-76.36h186m1-1H89v78.36h188v-78.36h0Z"/>
      </g>
      <text class="cls-29" transform="translate(132.95 777.29)"><tspan x="0" y="0">Eleme</tspan><tspan class="cls-32" x="61.54" y="0">n</tspan><tspan class="cls-31" x="74.76" y="0">t 1</tspan></text>
    </g>
    <g>
      <g>
        <rect class="cls-27" x="469.5" y="731.57" width="187" height="77.36"/>
        <path d="m656,732.07v76.36h-186v-76.36h186m1-1h-188v78.36h188v-78.36h0Z"/>
      </g>
      <text class="cls-29" transform="translate(512.95 777.29)"><tspan x="0" y="0">Eleme</tspan><tspan class="cls-32" x="61.54" y="0">n</tspan><tspan class="cls-31" x="74.76" y="0">t 2</tspan></text>
    </g>
    <g>
      <g>
        <rect class="cls-27" x="840.83" y="731.57" width="187" height="77.36"/>
        <path d="m1027.33,732.07v76.36h-186v-76.36h186m1-1h-188v78.36h188v-78.36h0Z"/>
      </g>
      <text class="cls-29" transform="translate(884.28 777.29)"><tspan x="0" y="0">Eleme</tspan><tspan class="cls-32" x="61.54" y="0">n</tspan><tspan class="cls-31" x="74.76" y="0">t 3</tspan></text>
    </g>
  </g>
  <g>
    <g>
      <rect class="cls-9" x="1.5" y="920.62" width="1130.08" height="93"/>
      <path d="m1131.08,921.12v92H2v-92h1129.08m1-1H1v94h1131.08v-94h0Z"/>
    </g>
    <g>
      <g>
        <rect class="cls-27" x="119.5" y="927.57" width="187" height="77.36"/>
        <path d="m306,928.07v76.36H120v-76.36h186m1-1H119v78.36h188v-78.36h0Z"/>
      </g>
      <text class="cls-29" transform="translate(162.95 973.29)"><tspan x="0" y="0">Eleme</tspan><tspan class="cls-32" x="61.54" y="0">n</tspan><tspan class="cls-31" x="74.76" y="0">t 1</tspan></text>
    </g>
    <g>
      <g>
        <rect class="cls-27" x="470.5" y="928.57" width="187" height="77.36"/>
        <path d="m657,929.07v76.36h-186v-76.36h186m1-1h-188v78.36h188v-78.36h0Z"/>
      </g>
      <text class="cls-29" transform="translate(513.95 974.29)"><tspan x="0" y="0">Eleme</tspan><tspan class="cls-32" x="61.54" y="0">n</tspan><tspan class="cls-31" x="74.76" y="0">t 2</tspan></text>
    </g>
    <g>
      <g>
        <rect class="cls-27" x="810.83" y="928.57" width="187" height="77.36"/>
        <path d="m997.33,929.07v76.36h-186v-76.36h186m1-1h-188v78.36h188v-78.36h0Z"/>
      </g>
      <text class="cls-29" transform="translate(854.28 974.29)"><tspan x="0" y="0">Eleme</tspan><tspan class="cls-32" x="61.54" y="0">n</tspan><tspan class="cls-31" x="74.76" y="0">t 3</tspan></text>
    </g>
  </g>
  <g>
    <g>
      <rect class="cls-9" x="1.5" y="541.62" width="1130.08" height="93"/>
      <path d="m1131.08,542.12v92H2v-92h1129.08m1-1H1v94h1131.08v-94h0Z"/>
    </g>
    <g>
      <g>
        <rect class="cls-27" x="14.5" y="548.57" width="187" height="77.36"/>
        <path d="m201,549.07v76.36H15v-76.36h186m1-1H14v78.36h188v-78.36h0Z"/>
      </g>
      <text class="cls-29" transform="translate(57.95 594.29)"><tspan x="0" y="0">Eleme</tspan><tspan class="cls-32" x="61.54" y="0">n</tspan><tspan class="cls-31" x="74.76" y="0">t 1</tspan></text>
    </g>
    <g>
      <g>
        <rect class="cls-27" x="480.5" y="548.57" width="187" height="77.36"/>
        <path d="m667,549.07v76.36h-186v-76.36h186m1-1h-188v78.36h188v-78.36h0Z"/>
      </g>
      <text class="cls-29" transform="translate(523.95 594.29)"><tspan x="0" y="0">Eleme</tspan><tspan class="cls-32" x="61.54" y="0">n</tspan><tspan class="cls-31" x="74.76" y="0">t 2</tspan></text>
    </g>
    <g>
      <g>
        <rect class="cls-27" x="934.83" y="549.57" width="187" height="77.36"/>
        <path d="m1121.33,550.07v76.36h-186v-76.36h186m1-1h-188v78.36h188v-78.36h0Z"/>
      </g>
      <text class="cls-29" transform="translate(978.28 595.29)"><tspan x="0" y="0">Eleme</tspan><tspan class="cls-32" x="61.54" y="0">n</tspan><tspan class="cls-31" x="74.76" y="0">t 3</tspan></text>
    </g>
  </g>
  <g>
    <g>
      <rect class="cls-9" x=".5" y="229.62" width="1130.08" height="93"/>
      <path d="m1130.08,230.12v92H1v-92h1129.08m1-1H0v94h1131.08v-94h0Z"/>
    </g>
    <g>
      <g>
        <rect class="cls-27" x="524.5" y="237.57" width="187" height="77.36"/>
        <path d="m711,238.07v76.36h-186v-76.36h186m1-1h-188v78.36h188v-78.36h0Z"/>
      </g>
      <text class="cls-29" transform="translate(567.95 283.29)"><tspan x="0" y="0">Eleme</tspan><tspan class="cls-32" x="61.54" y="0">n</tspan><tspan class="cls-31" x="74.76" y="0">t 1</tspan></text>
    </g>
    <g>
      <g>
        <rect class="cls-27" x="724.5" y="237.57" width="187" height="77.36"/>
        <path d="m911,238.07v76.36h-186v-76.36h186m1-1h-188v78.36h188v-78.36h0Z"/>
      </g>
      <text class="cls-29" transform="translate(767.95 283.29)"><tspan x="0" y="0">Eleme</tspan><tspan class="cls-32" x="61.54" y="0">n</tspan><tspan class="cls-31" x="74.76" y="0">t 2</tspan></text>
    </g>
    <g>
      <g>
        <rect class="cls-27" x="922.83" y="237.57" width="187" height="77.36"/>
        <path d="m1109.33,238.07v76.36h-186v-76.36h186m1-1h-188v78.36h188v-78.36h0Z"/>
      </g>
      <text class="cls-29" transform="translate(966.28 283.29)"><tspan x="0" y="0">Eleme</tspan><tspan class="cls-32" x="61.54" y="0">n</tspan><tspan class="cls-31" x="74.76" y="0">t 3</tspan></text>
    </g>
  </g>
  <g>
    <g>
      <rect class="cls-9" x=".5" y="385.62" width="1130.08" height="93"/>
      <path d="m1130.08,386.12v92H1v-92h1129.08m1-1H0v94h1131.08v-94h0Z"/>
    </g>
    <g>
      <g>
        <rect class="cls-27" x="280.5" y="393.57" width="187" height="77.36"/>
        <path d="m467,394.07v76.36h-186v-76.36h186m1-1h-188v78.36h188v-78.36h0Z"/>
      </g>
      <text class="cls-29" transform="translate(323.95 439.29)"><tspan x="0" y="0">Eleme</tspan><tspan class="cls-32" x="61.54" y="0">n</tspan><tspan class="cls-31" x="74.76" y="0">t 1</tspan></text>
    </g>
    <g>
      <g>
        <rect class="cls-27" x="480.5" y="393.57" width="187" height="77.36"/>
        <path d="m667,394.07v76.36h-186v-76.36h186m1-1h-188v78.36h188v-78.36h0Z"/>
      </g>
      <text class="cls-29" transform="translate(523.95 439.29)"><tspan x="0" y="0">Eleme</tspan><tspan class="cls-32" x="61.54" y="0">n</tspan><tspan class="cls-31" x="74.76" y="0">t 2</tspan></text>
    </g>
    <g>
      <g>
        <rect class="cls-27" x="678.83" y="393.57" width="187" height="77.36"/>
        <path d="m865.33,394.07v76.36h-186v-76.36h186m1-1h-188v78.36h188v-78.36h0Z"/>
      </g>
      <text class="cls-29" transform="translate(722.28 439.29)"><tspan x="0" y="0">Eleme</tspan><tspan class="cls-32" x="61.54" y="0">n</tspan><tspan class="cls-31" x="74.76" y="0">t 3</tspan></text>
    </g>
  </g>
  <g>
    <g>
      <rect class="cls-9" x="1.5" y="51.62" width="1130.08" height="93"/>
      <path d="m1131.08,52.12v92H2V52.12h1129.08m1-1H1v94h1131.08V51.12h0Z"/>
    </g>
    <g>
      <g>
        <rect class="cls-27" x="22.5" y="59.57" width="187" height="77.36"/>
        <path d="m209,60.07v76.36H23V60.07h186m1-1H22v78.36h188V59.07h0Z"/>
      </g>
      <text class="cls-29" transform="translate(65.95 105.29)"><tspan x="0" y="0">Eleme</tspan><tspan class="cls-32" x="61.54" y="0">n</tspan><tspan class="cls-31" x="74.76" y="0">t 1</tspan></text>
    </g>
    <g>
      <g>
        <rect class="cls-27" x="222.5" y="59.57" width="187" height="77.36"/>
        <path d="m409,60.07v76.36h-186V60.07h186m1-1h-188v78.36h188V59.07h0Z"/>
      </g>
      <text class="cls-29" transform="translate(265.95 105.29)"><tspan x="0" y="0">Eleme</tspan><tspan class="cls-32" x="61.54" y="0">n</tspan><tspan class="cls-31" x="74.76" y="0">t 2</tspan></text>
    </g>
    <g>
      <g>
        <rect class="cls-27" x="420.83" y="59.57" width="187" height="77.36"/>
        <path d="m607.33,60.07v76.36h-186V60.07h186m1-1h-188v78.36h188V59.07h0Z"/>
      </g>
      <text class="cls-29" transform="translate(464.28 105.29)"><tspan x="0" y="0">Eleme</tspan><tspan class="cls-32" x="61.54" y="0">n</tspan><tspan class="cls-31" x="74.76" y="0">t 3</tspan></text>
    </g>
  </g>
  <text class="cls-30" transform="translate(293.2 40.18)"><tspan class="cls-3" x="0" y="0">justif</tspan><tspan class="cls-2" x="98.25" y="0">y</tspan><tspan class="cls-7" x="120.67" y="0">-</tspan><tspan class="cls-1" x="136.27" y="0">c</tspan><tspan class="cls-4" x="157.49" y="0">o</tspan><tspan class="cls-6" x="183.84" y="0">n</tspan><tspan class="cls-1" x="210.28" y="0">t</tspan><tspan class="cls-5" x="225.88" y="0">e</tspan><tspan class="cls-2" x="249.93" y="0">n</tspan><tspan class="cls-3" x="276.38" y="0">t</tspan><tspan class="cls-26" x="292.27" y="0">: </tspan><tspan class="cls-22" x="312.38" y="0">fl</tspan><tspan class="cls-20" x="337.48" y="0">e</tspan><tspan class="cls-16" x="361.39" y="0">x</tspan><tspan class="cls-13" x="383.32" y="0">-sta</tspan><tspan class="cls-19" x="456.09" y="0">r</tspan><tspan class="cls-13" x="472.94" y="0">t</tspan><tspan x="488.82" y="0">;</tspan></text>
  <text class="cls-30" transform="translate(291.2 210.18)"><tspan class="cls-3" x="0" y="0">justif</tspan><tspan class="cls-2" x="98.25" y="0">y</tspan><tspan class="cls-7" x="120.67" y="0">-</tspan><tspan class="cls-1" x="136.27" y="0">c</tspan><tspan class="cls-4" x="157.49" y="0">o</tspan><tspan class="cls-6" x="183.84" y="0">n</tspan><tspan class="cls-1" x="210.28" y="0">t</tspan><tspan class="cls-5" x="225.88" y="0">e</tspan><tspan class="cls-2" x="249.93" y="0">n</tspan><tspan class="cls-3" x="276.38" y="0">t</tspan><tspan class="cls-26" x="292.27" y="0">: </tspan><tspan class="cls-22" x="312.38" y="0">fl</tspan><tspan class="cls-20" x="337.48" y="0">e</tspan><tspan class="cls-16" x="361.39" y="0">x</tspan><tspan class="cls-25" x="383.32" y="0">-</tspan><tspan class="cls-13" x="398.92" y="0">end</tspan><tspan x="476.68" y="0">;</tspan></text>
  <text class="cls-30" transform="translate(289.2 370.18)"><tspan class="cls-3" x="0" y="0">justif</tspan><tspan class="cls-2" x="98.25" y="0">y</tspan><tspan class="cls-7" x="120.67" y="0">-</tspan><tspan class="cls-1" x="136.27" y="0">c</tspan><tspan class="cls-4" x="157.49" y="0">o</tspan><tspan class="cls-6" x="183.84" y="0">n</tspan><tspan class="cls-1" x="210.28" y="0">t</tspan><tspan class="cls-5" x="225.88" y="0">e</tspan><tspan class="cls-2" x="249.93" y="0">n</tspan><tspan class="cls-3" x="276.38" y="0">t</tspan><tspan class="cls-26" x="292.27" y="0">: </tspan><tspan class="cls-8" x="312.38" y="0">c</tspan><tspan class="cls-15" x="333.59" y="0">e</tspan><tspan class="cls-14" x="357.64" y="0">n</tspan><tspan class="cls-21" x="384.09" y="0">t</tspan><tspan class="cls-13" x="399.69" y="0">e</tspan><tspan class="cls-24" x="423.74" y="0">r</tspan><tspan class="cls-28" x="439.86" y="0">;</tspan></text>
  <text class="cls-30" transform="translate(291.2 527.18)"><tspan class="cls-3" x="0" y="0">justif</tspan><tspan class="cls-2" x="98.25" y="0">y</tspan><tspan class="cls-7" x="120.67" y="0">-</tspan><tspan class="cls-1" x="136.27" y="0">c</tspan><tspan class="cls-4" x="157.49" y="0">o</tspan><tspan class="cls-6" x="183.84" y="0">n</tspan><tspan class="cls-1" x="210.28" y="0">t</tspan><tspan class="cls-5" x="225.88" y="0">e</tspan><tspan class="cls-2" x="249.93" y="0">n</tspan><tspan class="cls-3" x="276.38" y="0">t</tspan><tspan class="cls-26" x="292.27" y="0">: </tspan><tspan class="cls-13" x="312.38" y="0">spa</tspan><tspan class="cls-21" x="381.83" y="0">c</tspan><tspan class="cls-18" x="403.05" y="0">e</tspan><tspan class="cls-22" x="428.44" y="0">-be</tspan><tspan class="cls-17" x="494.54" y="0">t</tspan><tspan class="cls-10" x="510.85" y="0">w</tspan><tspan class="cls-22" x="545.7" y="0">een</tspan><tspan class="cls-26" x="620.44" y="0">;</tspan></text>
  <text class="cls-30" transform="translate(289.2 890.18)"><tspan class="cls-3" x="0" y="0">justif</tspan><tspan class="cls-2" x="98.25" y="0">y</tspan><tspan class="cls-7" x="120.67" y="0">-</tspan><tspan class="cls-1" x="136.27" y="0">c</tspan><tspan class="cls-4" x="157.49" y="0">o</tspan><tspan class="cls-6" x="183.84" y="0">n</tspan><tspan class="cls-1" x="210.28" y="0">t</tspan><tspan class="cls-5" x="225.88" y="0">e</tspan><tspan class="cls-2" x="249.93" y="0">n</tspan><tspan class="cls-3" x="276.38" y="0">t</tspan><tspan class="cls-26" x="292.27" y="0">: </tspan><tspan class="cls-13" x="312.38" y="0">spa</tspan><tspan class="cls-21" x="381.83" y="0">c</tspan><tspan class="cls-18" x="403.05" y="0">e</tspan><tspan class="cls-11" x="428.44" y="0">-</tspan><tspan class="cls-15" x="444.04" y="0">e</tspan><tspan class="cls-12" x="468.09" y="0">v</tspan><tspan class="cls-13" x="490.7" y="0">enl</tspan><tspan class="cls-23" x="552.71" y="0">y</tspan><tspan x="576.47" y="0">;</tspan></text>
  <text class="cls-30" transform="translate(289.2 688.18)"><tspan class="cls-3" x="0" y="0">justif</tspan><tspan class="cls-2" x="98.25" y="0">y</tspan><tspan class="cls-7" x="120.67" y="0">-</tspan><tspan class="cls-1" x="136.27" y="0">c</tspan><tspan class="cls-4" x="157.49" y="0">o</tspan><tspan class="cls-6" x="183.84" y="0">n</tspan><tspan class="cls-1" x="210.28" y="0">t</tspan><tspan class="cls-5" x="225.88" y="0">e</tspan><tspan class="cls-2" x="249.93" y="0">n</tspan><tspan class="cls-3" x="276.38" y="0">t</tspan><tspan class="cls-26" x="292.27" y="0">: </tspan><tspan class="cls-13" x="312.38" y="0">spa</tspan><tspan class="cls-21" x="381.83" y="0">c</tspan><tspan class="cls-18" x="403.05" y="0">e</tspan><tspan class="cls-22" x="428.44" y="0">-a</tspan><tspan class="cls-12" x="466.31" y="0">r</tspan><tspan class="cls-15" x="481.53" y="0">ound</tspan><tspan x="588.04" y="0">;</tspan></text>
</svg>