<?xml version="1.0" encoding="UTF-8"?>
<svg id="Capa_1" data-name="Capa 1" xmlns="http://www.w3.org/2000/svg" viewBox="0 0 553.92 528.47">
  <defs>
    <style>
      .cls-1, .cls-2, .cls-3, .cls-4, .cls-5, .cls-6, .cls-7, .cls-8, .cls-9, .cls-10, .cls-11, .cls-12 {
        stroke-miterlimit: 10;
      }

      .cls-1, .cls-2, .cls-3, .cls-4, .cls-6, .cls-7, .cls-8, .cls-9, .cls-10, .cls-11, .cls-12 {
        fill: none;
        stroke-width: 3px;
      }

      .cls-1, .cls-5 {
        stroke: #009fe3;
      }

      .cls-13 {
        fill: #fff;
      }

      .cls-14, .cls-15 {
        fill: #e30613;
      }

      .cls-14, .cls-5 {
        font-size: 39px;
      }

      .cls-14, .cls-5, .cls-16 {
        font-family: MyriadPro-Regular, 'Myriad Pro';
      }

      .cls-2, .cls-3, .cls-4, .cls-6, .cls-7, .cls-8, .cls-9, .cls-10, .cls-11 {
        stroke-linecap: square;
      }

      .cls-2, .cls-9, .cls-10 {
        stroke: #009640;
      }

      .cls-3, .cls-8, .cls-11 {
        stroke: #ffed00;
      }

      .cls-3, .cls-9 {
        stroke-dasharray: 0 0 .02 4.94;
      }

      .cls-17, .cls-5 {
        fill: #009fe3;
      }

      .cls-4, .cls-6, .cls-7 {
        stroke: #1d1d1b;
      }

      .cls-18 {
        letter-spacing: 0em;
      }

      .cls-19 {
        fill: #00a19a;
      }

      .cls-6 {
        stroke-dasharray: 0 0 .02 4.94;
      }

      .cls-7, .cls-8 {
        stroke-dasharray: 0 0 .02 4.98;
      }

      .cls-16 {
        fill: #312783;
        font-size: 44px;
      }

      .cls-10 {
        stroke-dasharray: 0 0 .02 4.98;
      }

      .cls-20 {
        fill: #ffed00;
      }

      .cls-12 {
        stroke: #e30613;
      }
    </style>
  </defs>
  <g>
    <rect class="cls-13" x="97.94" y="124.4" width="148.8" height="84.95"/>
    <g>
      <polyline class="cls-4" points="97.94 124.41 97.94 124.4 97.95 124.4"/>
      <line class="cls-6" x1="102.89" y1="124.4" x2="244.26" y2="124.4"/>
      <polyline class="cls-4" points="246.73 124.4 246.74 124.4 246.74 124.41"/>
      <line class="cls-7" x1="246.74" y1="129.39" x2="246.74" y2="206.85"/>
      <polyline class="cls-4" points="246.74 209.34 246.74 209.35 246.73 209.35"/>
      <line class="cls-6" x1="241.79" y1="209.35" x2="100.42" y2="209.35"/>
      <polyline class="cls-4" points="97.95 209.35 97.94 209.35 97.94 209.34"/>
      <line class="cls-7" x1="97.94" y1="204.36" x2="97.94" y2="126.9"/>
    </g>
  </g>
  <g>
    <rect class="cls-13" x="246.74" y="124.4" width="148.8" height="84.95"/>
    <g>
      <polyline class="cls-4" points="246.74 124.41 246.74 124.4 246.75 124.4"/>
      <line class="cls-6" x1="251.69" y1="124.4" x2="393.06" y2="124.4"/>
      <polyline class="cls-4" points="395.53 124.4 395.54 124.4 395.54 124.41"/>
      <line class="cls-7" x1="395.54" y1="129.39" x2="395.54" y2="206.85"/>
      <polyline class="cls-4" points="395.54 209.34 395.54 209.35 395.53 209.35"/>
      <line class="cls-6" x1="390.59" y1="209.35" x2="249.22" y2="209.35"/>
      <polyline class="cls-4" points="246.75 209.35 246.74 209.35 246.74 209.34"/>
      <line class="cls-7" x1="246.74" y1="204.36" x2="246.74" y2="126.9"/>
    </g>
  </g>
  <g>
    <rect class="cls-13" x="395.54" y="124.4" width="148.8" height="84.95"/>
    <g>
      <polyline class="cls-4" points="395.54 124.41 395.54 124.4 395.55 124.4"/>
      <line class="cls-6" x1="400.49" y1="124.4" x2="541.86" y2="124.4"/>
      <polyline class="cls-4" points="544.33 124.4 544.34 124.4 544.34 124.41"/>
      <line class="cls-7" x1="544.34" y1="129.39" x2="544.34" y2="206.85"/>
      <polyline class="cls-4" points="544.34 209.34 544.34 209.35 544.33 209.35"/>
      <line class="cls-6" x1="539.39" y1="209.35" x2="398.02" y2="209.35"/>
      <polyline class="cls-4" points="395.55 209.35 395.54 209.35 395.54 209.34"/>
      <line class="cls-7" x1="395.54" y1="204.36" x2="395.54" y2="126.9"/>
    </g>
  </g>
  <g>
    <rect class="cls-13" x="97.94" y="209.35" width="148.8" height="84.95"/>
    <g>
      <polyline class="cls-4" points="97.94 209.36 97.94 209.35 97.95 209.35"/>
      <line class="cls-6" x1="102.89" y1="209.35" x2="244.26" y2="209.35"/>
      <polyline class="cls-4" points="246.73 209.35 246.74 209.35 246.74 209.36"/>
      <line class="cls-7" x1="246.74" y1="214.34" x2="246.74" y2="291.8"/>
      <polyline class="cls-4" points="246.74 294.29 246.74 294.3 246.73 294.3"/>
      <line class="cls-6" x1="241.79" y1="294.3" x2="100.42" y2="294.3"/>
      <polyline class="cls-4" points="97.95 294.3 97.94 294.3 97.94 294.29"/>
      <line class="cls-7" x1="97.94" y1="289.31" x2="97.94" y2="211.85"/>
    </g>
  </g>
  <g>
    <rect class="cls-13" x="246.74" y="209.35" width="148.8" height="84.95"/>
    <g>
      <polyline class="cls-4" points="246.74 209.36 246.74 209.35 246.75 209.35"/>
      <line class="cls-6" x1="251.69" y1="209.35" x2="393.06" y2="209.35"/>
      <polyline class="cls-4" points="395.53 209.35 395.54 209.35 395.54 209.36"/>
      <line class="cls-7" x1="395.54" y1="214.34" x2="395.54" y2="291.8"/>
      <polyline class="cls-4" points="395.54 294.29 395.54 294.3 395.53 294.3"/>
      <line class="cls-6" x1="390.59" y1="294.3" x2="249.22" y2="294.3"/>
      <polyline class="cls-4" points="246.75 294.3 246.74 294.3 246.74 294.29"/>
      <line class="cls-7" x1="246.74" y1="289.31" x2="246.74" y2="211.85"/>
    </g>
  </g>
  <g>
    <rect class="cls-13" x="395.54" y="209.35" width="148.8" height="84.95"/>
    <g>
      <polyline class="cls-4" points="395.54 209.36 395.54 209.35 395.55 209.35"/>
      <line class="cls-6" x1="400.49" y1="209.35" x2="541.86" y2="209.35"/>
      <polyline class="cls-4" points="544.33 209.35 544.34 209.35 544.34 209.36"/>
      <line class="cls-7" x1="544.34" y1="214.34" x2="544.34" y2="291.8"/>
      <polyline class="cls-4" points="544.34 294.29 544.34 294.3 544.33 294.3"/>
      <line class="cls-6" x1="539.39" y1="294.3" x2="398.02" y2="294.3"/>
      <polyline class="cls-4" points="395.55 294.3 395.54 294.3 395.54 294.29"/>
      <line class="cls-7" x1="395.54" y1="289.31" x2="395.54" y2="211.85"/>
    </g>
  </g>
  <g>
    <rect class="cls-13" x="97.94" y="294.3" width="148.8" height="84.95"/>
    <g>
      <polyline class="cls-4" points="97.94 294.31 97.94 294.3 97.95 294.3"/>
      <line class="cls-6" x1="102.89" y1="294.3" x2="244.26" y2="294.3"/>
      <polyline class="cls-4" points="246.73 294.3 246.74 294.3 246.74 294.31"/>
      <line class="cls-7" x1="246.74" y1="299.29" x2="246.74" y2="376.75"/>
      <polyline class="cls-4" points="246.74 379.24 246.74 379.25 246.73 379.25"/>
      <line class="cls-6" x1="241.79" y1="379.25" x2="100.42" y2="379.25"/>
      <polyline class="cls-4" points="97.95 379.25 97.94 379.25 97.94 379.24"/>
      <line class="cls-7" x1="97.94" y1="374.26" x2="97.94" y2="296.8"/>
    </g>
  </g>
  <g>
    <rect class="cls-13" x="246.74" y="294.3" width="148.8" height="84.95"/>
    <g>
      <polyline class="cls-4" points="246.74 294.31 246.74 294.3 246.75 294.3"/>
      <line class="cls-6" x1="251.69" y1="294.3" x2="393.06" y2="294.3"/>
      <polyline class="cls-4" points="395.53 294.3 395.54 294.3 395.54 294.31"/>
      <line class="cls-7" x1="395.54" y1="299.29" x2="395.54" y2="376.75"/>
      <polyline class="cls-4" points="395.54 379.24 395.54 379.25 395.53 379.25"/>
      <line class="cls-6" x1="390.59" y1="379.25" x2="249.22" y2="379.25"/>
      <polyline class="cls-4" points="246.75 379.25 246.74 379.25 246.74 379.24"/>
      <line class="cls-7" x1="246.74" y1="374.26" x2="246.74" y2="296.8"/>
    </g>
  </g>
  <g>
    <rect class="cls-13" x="395.54" y="294.3" width="148.8" height="84.95"/>
    <g>
      <polyline class="cls-4" points="395.54 294.31 395.54 294.3 395.55 294.3"/>
      <line class="cls-6" x1="400.49" y1="294.3" x2="541.86" y2="294.3"/>
      <polyline class="cls-4" points="544.33 294.3 544.34 294.3 544.34 294.31"/>
      <line class="cls-7" x1="544.34" y1="299.29" x2="544.34" y2="376.75"/>
      <polyline class="cls-4" points="544.34 379.24 544.34 379.25 544.33 379.25"/>
      <line class="cls-6" x1="539.39" y1="379.25" x2="398.02" y2="379.25"/>
      <polyline class="cls-4" points="395.55 379.25 395.54 379.25 395.54 379.24"/>
      <line class="cls-7" x1="395.54" y1="374.26" x2="395.54" y2="296.8"/>
    </g>
  </g>
  <g>
    <rect class="cls-13" x="97.94" y="379.25" width="148.8" height="84.95"/>
    <g>
      <polyline class="cls-4" points="97.94 379.26 97.94 379.25 97.95 379.25"/>
      <line class="cls-6" x1="102.89" y1="379.25" x2="244.26" y2="379.25"/>
      <polyline class="cls-4" points="246.73 379.25 246.74 379.25 246.74 379.26"/>
      <line class="cls-7" x1="246.74" y1="384.23" x2="246.74" y2="461.7"/>
      <polyline class="cls-4" points="246.74 464.19 246.74 464.2 246.73 464.2"/>
      <line class="cls-6" x1="241.79" y1="464.2" x2="100.42" y2="464.2"/>
      <polyline class="cls-4" points="97.95 464.2 97.94 464.2 97.94 464.19"/>
      <line class="cls-7" x1="97.94" y1="459.21" x2="97.94" y2="381.75"/>
    </g>
  </g>
  <g>
    <rect class="cls-13" x="246.74" y="379.25" width="148.8" height="84.95"/>
    <g>
      <polyline class="cls-4" points="246.74 379.26 246.74 379.25 246.75 379.25"/>
      <line class="cls-6" x1="251.69" y1="379.25" x2="393.06" y2="379.25"/>
      <polyline class="cls-4" points="395.53 379.25 395.54 379.25 395.54 379.26"/>
      <line class="cls-7" x1="395.54" y1="384.23" x2="395.54" y2="461.7"/>
      <polyline class="cls-4" points="395.54 464.19 395.54 464.2 395.53 464.2"/>
      <line class="cls-6" x1="390.59" y1="464.2" x2="249.22" y2="464.2"/>
      <polyline class="cls-4" points="246.75 464.2 246.74 464.2 246.74 464.19"/>
      <line class="cls-7" x1="246.74" y1="459.21" x2="246.74" y2="381.75"/>
    </g>
  </g>
  <g>
    <rect class="cls-13" x="395.54" y="379.25" width="148.8" height="84.95"/>
    <g>
      <polyline class="cls-4" points="395.54 379.26 395.54 379.25 395.55 379.25"/>
      <line class="cls-6" x1="400.49" y1="379.25" x2="541.86" y2="379.25"/>
      <polyline class="cls-4" points="544.33 379.25 544.34 379.25 544.34 379.26"/>
      <line class="cls-7" x1="544.34" y1="384.23" x2="544.34" y2="461.7"/>
      <polyline class="cls-4" points="544.34 464.19 544.34 464.2 544.33 464.2"/>
      <line class="cls-6" x1="539.39" y1="464.2" x2="398.02" y2="464.2"/>
      <polyline class="cls-4" points="395.55 464.2 395.54 464.2 395.54 464.19"/>
      <line class="cls-7" x1="395.54" y1="459.21" x2="395.54" y2="381.75"/>
    </g>
  </g>
  <text class="cls-14" transform="translate(0 136.05)"><tspan x="0" y="0">1</tspan></text>
  <text class="cls-5" transform="translate(85.76 33.14)"><tspan x="0" y="0">1</tspan></text>
  <text class="cls-5" transform="translate(240.83 33.14)"><tspan x="0" y="0">2</tspan></text>
  <text class="cls-14" transform="translate(4.06 221.81)"><tspan x="0" y="0">2</tspan></text>
  <text class="cls-5" transform="translate(388.55 33.14)"><tspan x="0" y="0">3</tspan></text>
  <text class="cls-14" transform="translate(4.06 297.85)"><tspan x="0" y="0">3</tspan></text>
  <text class="cls-14" transform="translate(4.06 386.86)"><tspan x="0" y="0">4</tspan></text>
  <text class="cls-5" transform="translate(528.82 33.14)"><tspan x="0" y="0">4</tspan></text>
  <text class="cls-14" transform="translate(4.06 471.92)"><tspan x="0" y="0">5</tspan></text>
  <g>
    <rect class="cls-19" x="97.94" y="209.35" width="297.6" height="169.9"/>
    <g>
      <polyline class="cls-2" points="97.94 209.36 97.94 209.35 97.95 209.35"/>
      <line class="cls-9" x1="102.89" y1="209.35" x2="393.06" y2="209.35"/>
      <polyline class="cls-2" points="395.53 209.35 395.54 209.35 395.54 209.36"/>
      <line class="cls-10" x1="395.54" y1="214.34" x2="395.54" y2="376.75"/>
      <polyline class="cls-2" points="395.54 379.24 395.54 379.25 395.53 379.25"/>
      <line class="cls-9" x1="390.59" y1="379.25" x2="100.42" y2="379.25"/>
      <polyline class="cls-2" points="97.95 379.25 97.94 379.25 97.94 379.24"/>
      <line class="cls-10" x1="97.94" y1="374.26" x2="97.94" y2="211.85"/>
    </g>
  </g>
  <text class="cls-16" transform="translate(217.76 315.3)"><tspan x="0" y="0">i</tspan><tspan class="cls-18" x="10.3" y="0">t</tspan><tspan x="24.6" y="0">em 1</tspan></text>
  <g>
    <rect class="cls-20" x="246.74" y="124.4" width="297.6" height="84.95"/>
    <g>
      <polyline class="cls-11" points="246.74 124.41 246.74 124.4 246.75 124.4"/>
      <line class="cls-3" x1="251.69" y1="124.4" x2="541.86" y2="124.4"/>
      <polyline class="cls-11" points="544.33 124.4 544.34 124.4 544.34 124.41"/>
      <line class="cls-8" x1="544.34" y1="129.39" x2="544.34" y2="206.85"/>
      <polyline class="cls-11" points="544.34 209.34 544.34 209.35 544.33 209.35"/>
      <line class="cls-3" x1="539.39" y1="209.35" x2="249.22" y2="209.35"/>
      <polyline class="cls-11" points="246.75 209.35 246.74 209.35 246.74 209.34"/>
      <line class="cls-8" x1="246.74" y1="204.36" x2="246.74" y2="126.9"/>
    </g>
  </g>
  <text class="cls-16" transform="translate(336.3 181.54)"><tspan x="0" y="0">i</tspan><tspan class="cls-18" x="10.3" y="0">t</tspan><tspan x="24.6" y="0">em 2</tspan></text>
  <g>
    <line class="cls-15" x1="90.62" y1="124.4" x2="35.56" y2="124.4"/>
    <g>
      <line class="cls-12" x1="76.85" y1="124.4" x2="35.56" y2="124.4"/>
      <polygon class="cls-15" points="74.04 114.83 90.62 124.4 74.04 133.97 74.04 114.83"/>
    </g>
  </g>
  <g>
    <line class="cls-15" x1="90.62" y1="209.35" x2="35.56" y2="209.35"/>
    <g>
      <line class="cls-12" x1="76.85" y1="209.35" x2="35.56" y2="209.35"/>
      <polygon class="cls-15" points="74.04 199.78 90.62 209.35 74.04 218.92 74.04 199.78"/>
    </g>
  </g>
  <g>
    <line class="cls-15" x1="90.62" y1="285.6" x2="35.56" y2="285.6"/>
    <g>
      <line class="cls-12" x1="76.85" y1="285.6" x2="35.56" y2="285.6"/>
      <polygon class="cls-15" points="74.04 276.03 90.62 285.6 74.04 295.18 74.04 276.03"/>
    </g>
  </g>
  <g>
    <line class="cls-15" x1="90.62" y1="379.25" x2="35.56" y2="379.25"/>
    <g>
      <line class="cls-12" x1="76.85" y1="379.25" x2="35.56" y2="379.25"/>
      <polygon class="cls-15" points="74.04 369.67 90.62 379.25 74.04 388.82 74.04 369.67"/>
    </g>
  </g>
  <g>
    <line class="cls-15" x1="90.62" y1="464.2" x2="35.56" y2="464.2"/>
    <g>
      <line class="cls-12" x1="76.85" y1="464.2" x2="35.56" y2="464.2"/>
      <polygon class="cls-15" points="74.04 454.62 90.62 464.19 74.04 473.77 74.04 454.62"/>
    </g>
  </g>
  <g>
    <line class="cls-15" x1="246.74" y1="101.26" x2="246.74" y2="46.2"/>
    <g>
      <line class="cls-1" x1="246.74" y1="87.48" x2="246.74" y2="46.2"/>
      <polygon class="cls-17" points="256.32 84.68 246.74 101.26 237.17 84.68 256.32 84.68"/>
    </g>
  </g>
  <g>
    <line class="cls-15" x1="395.54" y1="101.26" x2="395.54" y2="46.2"/>
    <g>
      <line class="cls-1" x1="395.54" y1="87.48" x2="395.54" y2="46.2"/>
      <polygon class="cls-17" points="405.12 84.68 395.54 101.26 385.97 84.68 405.12 84.68"/>
    </g>
  </g>
  <g>
    <line class="cls-15" x1="544.34" y1="101.26" x2="544.34" y2="46.2"/>
    <g>
      <line class="cls-1" x1="544.34" y1="87.48" x2="544.34" y2="46.2"/>
      <polygon class="cls-17" points="553.92 84.68 544.34 101.26 534.77 84.68 553.92 84.68"/>
    </g>
  </g>
  <g>
    <line class="cls-15" x1="97.94" y1="101.26" x2="97.94" y2="46.2"/>
    <g>
      <line class="cls-1" x1="97.94" y1="87.48" x2="97.94" y2="46.2"/>
      <polygon class="cls-17" points="107.51 84.68 97.94 101.26 88.37 84.68 107.51 84.68"/>
    </g>
  </g>
</svg>