<?xml version="1.0" encoding="UTF-8"?>
<svg id="Capa_1" data-name="Capa 1" xmlns="http://www.w3.org/2000/svg" viewBox="0 0 468.12 483.11">
  <defs>
    <style>
      .cls-1 {
        fill: #fff;
      }

      .cls-2 {
        fill: #36a9e1;
      }

      .cls-3, .cls-4, .cls-5, .cls-6, .cls-7, .cls-8, .cls-9, .cls-10, .cls-11, .cls-12, .cls-13 {
        stroke-miterlimit: 10;
      }

      .cls-3, .cls-4, .cls-5, .cls-8, .cls-9, .cls-10, .cls-11, .cls-12, .cls-13 {
        fill: none;
        stroke-linecap: square;
        stroke-width: 3px;
      }

      .cls-3, .cls-9, .cls-11 {
        stroke: #009fe3;
      }

      .cls-3, .cls-10, .cls-13 {
        stroke-dasharray: 0 0 .02 4.98;
      }

      .cls-14 {
        font-size: 39px;
      }

      .cls-14, .cls-6, .cls-7 {
        font-family: MyriadPro-Regular, 'Myriad Pro';
      }

      .cls-14, .cls-7 {
        fill: #e30613;
      }

      .cls-4, .cls-5, .cls-11 {
        stroke-dasharray: 0 0 .02 4.97;
      }

      .cls-4, .cls-6, .cls-8, .cls-10 {
        stroke: #1d1d1b;
      }

      .cls-5, .cls-12, .cls-13 {
        stroke: #f9b233;
      }

      .cls-6 {
        fill: #312783;
      }

      .cls-6, .cls-7 {
        font-size: 44px;
      }

      .cls-7 {
        stroke: #e30613;
      }

      .cls-15 {
        letter-spacing: 0em;
      }

      .cls-16 {
        fill: #f9b233;
      }
    </style>
  </defs>
  <g>
    <rect class="cls-1" x="36.9" y="56.87" width="104.84" height="84.95"/>
    <g>
      <polyline class="cls-8" points="36.9 56.88 36.9 56.87 36.91 56.87"/>
      <line class="cls-4" x1="41.88" y1="56.87" x2="139.25" y2="56.87"/>
      <polyline class="cls-8" points="141.74 56.87 141.75 56.87 141.75 56.88"/>
      <line class="cls-10" x1="141.75" y1="61.86" x2="141.75" y2="139.32"/>
      <polyline class="cls-8" points="141.75 141.81 141.75 141.82 141.74 141.82"/>
      <line class="cls-4" x1="136.76" y1="141.82" x2="39.4" y2="141.82"/>
      <polyline class="cls-8" points="36.91 141.82 36.9 141.82 36.9 141.81"/>
      <line class="cls-10" x1="36.9" y1="136.83" x2="36.9" y2="59.37"/>
    </g>
  </g>
  <g>
    <rect class="cls-1" x="141.75" y="56.87" width="104.84" height="84.95"/>
    <g>
      <polyline class="cls-8" points="141.75 56.88 141.75 56.87 141.76 56.87"/>
      <line class="cls-4" x1="146.73" y1="56.87" x2="244.09" y2="56.87"/>
      <polyline class="cls-8" points="246.58 56.87 246.59 56.87 246.59 56.88"/>
      <line class="cls-10" x1="246.59" y1="61.86" x2="246.59" y2="139.32"/>
      <polyline class="cls-8" points="246.59 141.81 246.59 141.82 246.58 141.82"/>
      <line class="cls-4" x1="241.61" y1="141.82" x2="144.24" y2="141.82"/>
      <polyline class="cls-8" points="141.76 141.82 141.75 141.82 141.75 141.81"/>
      <line class="cls-10" x1="141.75" y1="136.83" x2="141.75" y2="59.37"/>
    </g>
  </g>
  <g>
    <rect class="cls-1" x="246.59" y="56.87" width="104.84" height="84.95"/>
    <g>
      <polyline class="cls-8" points="246.59 56.88 246.59 56.87 246.6 56.87"/>
      <line class="cls-4" x1="251.57" y1="56.87" x2="348.94" y2="56.87"/>
      <polyline class="cls-8" points="351.42 56.87 351.43 56.87 351.43 56.88"/>
      <line class="cls-10" x1="351.43" y1="61.86" x2="351.43" y2="139.32"/>
      <polyline class="cls-8" points="351.43 141.81 351.43 141.82 351.42 141.82"/>
      <line class="cls-4" x1="346.45" y1="141.82" x2="249.09" y2="141.82"/>
      <polyline class="cls-8" points="246.6 141.82 246.59 141.82 246.59 141.81"/>
      <line class="cls-10" x1="246.59" y1="136.83" x2="246.59" y2="59.37"/>
    </g>
  </g>
  <g>
    <rect class="cls-1" x="351.43" y="56.87" width="104.84" height="84.95"/>
    <g>
      <polyline class="cls-8" points="351.43 56.88 351.43 56.87 351.44 56.87"/>
      <line class="cls-4" x1="356.42" y1="56.87" x2="453.78" y2="56.87"/>
      <polyline class="cls-8" points="456.27 56.87 456.28 56.87 456.28 56.88"/>
      <line class="cls-10" x1="456.28" y1="61.86" x2="456.28" y2="139.32"/>
      <polyline class="cls-8" points="456.28 141.81 456.28 141.82 456.27 141.82"/>
      <line class="cls-4" x1="451.3" y1="141.82" x2="353.93" y2="141.82"/>
      <polyline class="cls-8" points="351.44 141.82 351.43 141.82 351.43 141.81"/>
      <line class="cls-10" x1="351.43" y1="136.83" x2="351.43" y2="59.37"/>
    </g>
  </g>
  <g>
    <rect class="cls-16" x="36.9" y="141.82" width="104.84" height="84.95"/>
    <g>
      <polyline class="cls-12" points="36.9 141.83 36.9 141.82 36.91 141.82"/>
      <line class="cls-5" x1="41.88" y1="141.82" x2="139.25" y2="141.82"/>
      <polyline class="cls-12" points="141.74 141.82 141.75 141.82 141.75 141.83"/>
      <line class="cls-13" x1="141.75" y1="146.8" x2="141.75" y2="224.27"/>
      <polyline class="cls-12" points="141.75 226.76 141.75 226.77 141.74 226.77"/>
      <line class="cls-5" x1="136.76" y1="226.77" x2="39.4" y2="226.77"/>
      <polyline class="cls-12" points="36.91 226.77 36.9 226.77 36.9 226.76"/>
      <line class="cls-13" x1="36.9" y1="221.78" x2="36.9" y2="144.32"/>
    </g>
  </g>
  <g>
    <rect class="cls-16" x="141.75" y="141.82" width="104.84" height="84.95"/>
    <g>
      <polyline class="cls-12" points="141.75 141.83 141.75 141.82 141.76 141.82"/>
      <line class="cls-5" x1="146.73" y1="141.82" x2="244.09" y2="141.82"/>
      <polyline class="cls-12" points="246.58 141.82 246.59 141.82 246.59 141.83"/>
      <line class="cls-13" x1="246.59" y1="146.8" x2="246.59" y2="224.27"/>
      <polyline class="cls-12" points="246.59 226.76 246.59 226.77 246.58 226.77"/>
      <line class="cls-5" x1="241.61" y1="226.77" x2="144.24" y2="226.77"/>
      <polyline class="cls-12" points="141.76 226.77 141.75 226.77 141.75 226.76"/>
      <line class="cls-13" x1="141.75" y1="221.78" x2="141.75" y2="144.32"/>
    </g>
  </g>
  <g>
    <rect class="cls-1" x="246.59" y="141.82" width="104.84" height="84.95"/>
    <g>
      <polyline class="cls-8" points="246.59 141.83 246.59 141.82 246.6 141.82"/>
      <line class="cls-4" x1="251.57" y1="141.82" x2="348.94" y2="141.82"/>
      <polyline class="cls-8" points="351.42 141.82 351.43 141.82 351.43 141.83"/>
      <line class="cls-10" x1="351.43" y1="146.8" x2="351.43" y2="224.27"/>
      <polyline class="cls-8" points="351.43 226.76 351.43 226.77 351.42 226.77"/>
      <line class="cls-4" x1="346.45" y1="226.77" x2="249.09" y2="226.77"/>
      <polyline class="cls-8" points="246.6 226.77 246.59 226.77 246.59 226.76"/>
      <line class="cls-10" x1="246.59" y1="221.78" x2="246.59" y2="144.32"/>
    </g>
  </g>
  <g>
    <rect class="cls-1" x="351.43" y="141.82" width="104.84" height="84.95"/>
    <g>
      <polyline class="cls-8" points="351.43 141.83 351.43 141.82 351.44 141.82"/>
      <line class="cls-4" x1="356.42" y1="141.82" x2="453.78" y2="141.82"/>
      <polyline class="cls-8" points="456.27 141.82 456.28 141.82 456.28 141.83"/>
      <line class="cls-10" x1="456.28" y1="146.8" x2="456.28" y2="224.27"/>
      <polyline class="cls-8" points="456.28 226.76 456.28 226.77 456.27 226.77"/>
      <line class="cls-4" x1="451.3" y1="226.77" x2="353.93" y2="226.77"/>
      <polyline class="cls-8" points="351.44 226.77 351.43 226.77 351.43 226.76"/>
      <line class="cls-10" x1="351.43" y1="221.78" x2="351.43" y2="144.32"/>
    </g>
  </g>
  <g>
    <rect class="cls-16" x="36.9" y="226.77" width="104.84" height="84.95"/>
    <g>
      <polyline class="cls-12" points="36.9 226.78 36.9 226.77 36.91 226.77"/>
      <line class="cls-5" x1="41.88" y1="226.77" x2="139.25" y2="226.77"/>
      <polyline class="cls-12" points="141.74 226.77 141.75 226.77 141.75 226.78"/>
      <line class="cls-13" x1="141.75" y1="231.75" x2="141.75" y2="309.22"/>
      <polyline class="cls-12" points="141.75 311.71 141.75 311.72 141.74 311.72"/>
      <line class="cls-5" x1="136.76" y1="311.72" x2="39.4" y2="311.72"/>
      <polyline class="cls-12" points="36.91 311.72 36.9 311.72 36.9 311.71"/>
      <line class="cls-13" x1="36.9" y1="306.73" x2="36.9" y2="229.27"/>
    </g>
  </g>
  <g>
    <rect class="cls-16" x="141.75" y="226.77" width="104.84" height="84.95"/>
    <g>
      <polyline class="cls-12" points="141.75 226.78 141.75 226.77 141.76 226.77"/>
      <line class="cls-5" x1="146.73" y1="226.77" x2="244.09" y2="226.77"/>
      <polyline class="cls-12" points="246.58 226.77 246.59 226.77 246.59 226.78"/>
      <line class="cls-13" x1="246.59" y1="231.75" x2="246.59" y2="309.22"/>
      <polyline class="cls-12" points="246.59 311.71 246.59 311.72 246.58 311.72"/>
      <line class="cls-5" x1="241.61" y1="311.72" x2="144.24" y2="311.72"/>
      <polyline class="cls-12" points="141.76 311.72 141.75 311.72 141.75 311.71"/>
      <line class="cls-13" x1="141.75" y1="306.73" x2="141.75" y2="229.27"/>
    </g>
  </g>
  <g>
    <rect class="cls-2" x="246.59" y="226.77" width="104.84" height="84.95"/>
    <g>
      <polyline class="cls-9" points="246.59 226.78 246.59 226.77 246.6 226.77"/>
      <line class="cls-11" x1="251.57" y1="226.77" x2="348.94" y2="226.77"/>
      <polyline class="cls-9" points="351.42 226.77 351.43 226.77 351.43 226.78"/>
      <line class="cls-3" x1="351.43" y1="231.75" x2="351.43" y2="309.22"/>
      <polyline class="cls-9" points="351.43 311.71 351.43 311.72 351.42 311.72"/>
      <line class="cls-11" x1="346.45" y1="311.72" x2="249.09" y2="311.72"/>
      <polyline class="cls-9" points="246.6 311.72 246.59 311.72 246.59 311.71"/>
      <line class="cls-3" x1="246.59" y1="306.73" x2="246.59" y2="229.27"/>
    </g>
  </g>
  <g>
    <rect class="cls-2" x="351.43" y="226.77" width="104.84" height="84.95"/>
    <g>
      <polyline class="cls-9" points="351.43 226.78 351.43 226.77 351.44 226.77"/>
      <line class="cls-11" x1="356.42" y1="226.77" x2="453.78" y2="226.77"/>
      <polyline class="cls-9" points="456.27 226.77 456.28 226.77 456.28 226.78"/>
      <line class="cls-3" x1="456.28" y1="231.75" x2="456.28" y2="309.22"/>
      <polyline class="cls-9" points="456.28 311.71 456.28 311.72 456.27 311.72"/>
      <line class="cls-11" x1="451.3" y1="311.72" x2="353.93" y2="311.72"/>
      <polyline class="cls-9" points="351.44 311.72 351.43 311.72 351.43 311.71"/>
      <line class="cls-3" x1="351.43" y1="306.73" x2="351.43" y2="229.27"/>
    </g>
  </g>
  <g>
    <rect class="cls-1" x="36.9" y="311.72" width="104.84" height="84.95"/>
    <g>
      <polyline class="cls-8" points="36.9 311.73 36.9 311.72 36.91 311.72"/>
      <line class="cls-4" x1="41.88" y1="311.72" x2="139.25" y2="311.72"/>
      <polyline class="cls-8" points="141.74 311.72 141.75 311.72 141.75 311.73"/>
      <line class="cls-10" x1="141.75" y1="316.7" x2="141.75" y2="394.17"/>
      <polyline class="cls-8" points="141.75 396.65 141.75 396.66 141.74 396.66"/>
      <line class="cls-4" x1="136.76" y1="396.66" x2="39.4" y2="396.66"/>
      <polyline class="cls-8" points="36.91 396.66 36.9 396.66 36.9 396.65"/>
      <line class="cls-10" x1="36.9" y1="391.68" x2="36.9" y2="314.21"/>
    </g>
  </g>
  <g>
    <rect class="cls-1" x="141.75" y="311.72" width="104.84" height="84.95"/>
    <g>
      <polyline class="cls-8" points="141.75 311.73 141.75 311.72 141.76 311.72"/>
      <line class="cls-4" x1="146.73" y1="311.72" x2="244.09" y2="311.72"/>
      <polyline class="cls-8" points="246.58 311.72 246.59 311.72 246.59 311.73"/>
      <line class="cls-10" x1="246.59" y1="316.7" x2="246.59" y2="394.17"/>
      <polyline class="cls-8" points="246.59 396.65 246.59 396.66 246.58 396.66"/>
      <line class="cls-4" x1="241.61" y1="396.66" x2="144.24" y2="396.66"/>
      <polyline class="cls-8" points="141.76 396.66 141.75 396.66 141.75 396.65"/>
      <line class="cls-10" x1="141.75" y1="391.68" x2="141.75" y2="314.21"/>
    </g>
  </g>
  <g>
    <rect class="cls-2" x="246.59" y="311.72" width="104.84" height="84.95"/>
    <g>
      <polyline class="cls-9" points="246.59 311.73 246.59 311.72 246.6 311.72"/>
      <line class="cls-11" x1="251.57" y1="311.72" x2="348.94" y2="311.72"/>
      <polyline class="cls-9" points="351.42 311.72 351.43 311.72 351.43 311.73"/>
      <line class="cls-3" x1="351.43" y1="316.7" x2="351.43" y2="394.17"/>
      <polyline class="cls-9" points="351.43 396.65 351.43 396.66 351.42 396.66"/>
      <line class="cls-11" x1="346.45" y1="396.66" x2="249.09" y2="396.66"/>
      <polyline class="cls-9" points="246.6 396.66 246.59 396.66 246.59 396.65"/>
      <line class="cls-3" x1="246.59" y1="391.68" x2="246.59" y2="314.21"/>
    </g>
  </g>
  <g>
    <rect class="cls-2" x="351.43" y="311.72" width="104.84" height="84.95"/>
    <g>
      <polyline class="cls-9" points="351.43 311.73 351.43 311.72 351.44 311.72"/>
      <line class="cls-11" x1="356.42" y1="311.72" x2="453.78" y2="311.72"/>
      <polyline class="cls-9" points="456.27 311.72 456.28 311.72 456.28 311.73"/>
      <line class="cls-3" x1="456.28" y1="316.7" x2="456.28" y2="394.17"/>
      <polyline class="cls-9" points="456.28 396.65 456.28 396.66 456.27 396.66"/>
      <line class="cls-11" x1="451.3" y1="396.66" x2="353.93" y2="396.66"/>
      <polyline class="cls-9" points="351.44 396.66 351.43 396.66 351.43 396.65"/>
      <line class="cls-3" x1="351.43" y1="391.68" x2="351.43" y2="314.21"/>
    </g>
  </g>
  <g>
    <rect class="cls-1" x="36.9" y="396.66" width="104.84" height="84.95"/>
    <g>
      <polyline class="cls-8" points="36.9 396.67 36.9 396.66 36.91 396.66"/>
      <line class="cls-4" x1="41.88" y1="396.66" x2="139.25" y2="396.66"/>
      <polyline class="cls-8" points="141.74 396.66 141.75 396.66 141.75 396.67"/>
      <line class="cls-10" x1="141.75" y1="401.65" x2="141.75" y2="479.11"/>
      <polyline class="cls-8" points="141.75 481.6 141.75 481.61 141.74 481.61"/>
      <line class="cls-4" x1="136.76" y1="481.61" x2="39.4" y2="481.61"/>
      <polyline class="cls-8" points="36.91 481.61 36.9 481.61 36.9 481.6"/>
      <line class="cls-10" x1="36.9" y1="476.63" x2="36.9" y2="399.16"/>
    </g>
  </g>
  <g>
    <rect class="cls-1" x="141.75" y="396.66" width="104.84" height="84.95"/>
    <g>
      <polyline class="cls-8" points="141.75 396.67 141.75 396.66 141.76 396.66"/>
      <line class="cls-4" x1="146.73" y1="396.66" x2="244.09" y2="396.66"/>
      <polyline class="cls-8" points="246.58 396.66 246.59 396.66 246.59 396.67"/>
      <line class="cls-10" x1="246.59" y1="401.65" x2="246.59" y2="479.11"/>
      <polyline class="cls-8" points="246.59 481.6 246.59 481.61 246.58 481.61"/>
      <line class="cls-4" x1="241.61" y1="481.61" x2="144.24" y2="481.61"/>
      <polyline class="cls-8" points="141.76 481.61 141.75 481.61 141.75 481.6"/>
      <line class="cls-10" x1="141.75" y1="476.63" x2="141.75" y2="399.16"/>
    </g>
  </g>
  <g>
    <rect class="cls-1" x="246.59" y="396.66" width="104.84" height="84.95"/>
    <g>
      <polyline class="cls-8" points="246.59 396.67 246.59 396.66 246.6 396.66"/>
      <line class="cls-4" x1="251.57" y1="396.66" x2="348.94" y2="396.66"/>
      <polyline class="cls-8" points="351.42 396.66 351.43 396.66 351.43 396.67"/>
      <line class="cls-10" x1="351.43" y1="401.65" x2="351.43" y2="479.11"/>
      <polyline class="cls-8" points="351.43 481.6 351.43 481.61 351.42 481.61"/>
      <line class="cls-4" x1="346.45" y1="481.61" x2="249.09" y2="481.61"/>
      <polyline class="cls-8" points="246.6 481.61 246.59 481.61 246.59 481.6"/>
      <line class="cls-10" x1="246.59" y1="476.63" x2="246.59" y2="399.16"/>
    </g>
  </g>
  <g>
    <rect class="cls-1" x="351.43" y="396.66" width="104.84" height="84.95"/>
    <g>
      <polyline class="cls-8" points="351.43 396.67 351.43 396.66 351.44 396.66"/>
      <line class="cls-4" x1="356.42" y1="396.66" x2="453.78" y2="396.66"/>
      <polyline class="cls-8" points="456.27 396.66 456.28 396.66 456.28 396.67"/>
      <line class="cls-10" x1="456.28" y1="401.65" x2="456.28" y2="479.11"/>
      <polyline class="cls-8" points="456.28 481.6 456.28 481.61 456.27 481.61"/>
      <line class="cls-4" x1="451.3" y1="481.61" x2="353.93" y2="481.61"/>
      <polyline class="cls-8" points="351.44 481.61 351.43 481.61 351.43 481.6"/>
      <line class="cls-10" x1="351.43" y1="476.63" x2="351.43" y2="399.16"/>
    </g>
  </g>
  <text class="cls-14" transform="translate(0 153.35)"><tspan x="0" y="0">2</tspan></text>
  <text class="cls-14" transform="translate(237.18 32.64) scale(1.04 1)"><tspan x="0" y="0">3</tspan></text>
  <text class="cls-14" transform="translate(340.23 33.07) scale(1.04 1)"><tspan x="0" y="0">4</tspan></text>
  <text class="cls-14" transform="translate(447.35 33.07) scale(1.04 1)"><tspan x="0" y="0">5</tspan></text>
  <text class="cls-14" transform="translate(1.75 408.17) scale(1.04 1)"><tspan x="0" y="0">5</tspan></text>
  <text class="cls-14" transform="translate(29.15 33.5) scale(1.04 1)"><tspan x="0" y="0">1</tspan></text>
  <text class="cls-14" transform="translate(125.88 33.07) scale(1.04 1)"><tspan x="0" y="0">2</tspan></text>
  <text class="cls-14" transform="translate(1.75 236.63) scale(1.04 1)"><tspan x="0" y="0">3</tspan></text>
  <text class="cls-14" transform="translate(1.76 321.35)"><tspan x="0" y="0">4</tspan></text>
  <text class="cls-6" transform="translate(89.32 242.12)"><tspan x="0" y="0">i</tspan><tspan class="cls-15" x="10.3" y="0">t</tspan><tspan x="24.6" y="0">em 1</tspan></text>
  <text class="cls-7" transform="translate(292.75 323.63)"><tspan x="0" y="0">i</tspan><tspan class="cls-15" x="10.3" y="0">t</tspan><tspan x="24.6" y="0">em 2</tspan></text>
</svg>